<svg xmlns="http://www.w3.org/2000/svg" xmlns:xlink="http://www.w3.org/1999/xlink" id="a"
  width="250" height="63.6" viewBox="0 0 250 63.6">
  <defs>
    <style>
      .c{fill:url(#b);}.d{fill:#1a1a1a;}.d,.e,.f{fill-rule:evenodd;}.e{fill:#ff8629;}.f{fill:#fff;}</style>
    <linearGradient id="b" x1="0" y1="34" x2="65.9" y2="34"
      gradientTransform="translate(0 65.8) scale(1 -1)" gradientUnits="userSpaceOnUse">
      <stop offset="0" stop-color="#ff7911" />
      <stop offset="1" stop-color="#ff8528" />
    </linearGradient>
  </defs>
  <ellipse cx="33" cy="31.8" rx="33" ry="31.8" style="fill:url(#b);" />
  <g>
    <path d="M103.7,17.9v25.7h-5.2l-13.1-15.7v15.7h-6.2V17.9h5l13.4,15.7v-15.7h6Z"
      style="fill:#1a1a1a; fill-rule:evenodd;" />
    <path
      d="M115.7,28.9c-.9,.7-1.5,1.9-1.9,3.2h10.3c-.2-1.1-.7-2.2-1.5-3.2-2.1-1.5-4.9-1.5-6.9,0Zm14,6.7h-15.7c.2,1.1,.9,2.2,2,2.8,1.1,.9,2.4,1.3,3.9,1.1l2.8-.4c.9-.2,1.7-.7,2.4-1.3l3.2,3.2c-2.2,2.4-5.4,3.5-8.6,3.4-2,0-4.3-.4-6.2-1.3-1.7-.7-3.2-2-4.1-3.5-1.1-1.7-1.7-3.5-1.5-5.4,0-1.9,.6-3.7,1.5-5.2,.9-1.5,2.2-2.8,3.9-3.5,1.7-.9,3.7-1.3,5.6-1.3s3.7,.4,5.4,1.3c1.7,.7,3,2,3.9,3.5,.9,1.7,1.5,3.5,1.3,5.4,0,0,0,1.3,0,1.3Z"
      style="fill:#1a1a1a; fill-rule:evenodd;" />
    <path
      d="M166.4,23.7l-7.5,20h-5.6l-4.7-12.3-4.7,12.3h-5.6l-7.5-20h5.6l4.7,13.6,5-13.6h5.2l4.7,13.6,5-13.6h5.2Z"
      style="fill:#1a1a1a; fill-rule:evenodd;" />
    <path
      d="M170.7,43.5c-1.3-.4-2.6-.9-3.9-1.5l2-4.1,3.2,1.3c1.3,.4,2.6,.6,3.9,.4,2.4,0,3.9-.4,3.9-1.9s-.4-.9-1.1-1.1l-3.2-.7-4.1-.9c-1.1-.4-2-.9-3-1.5-1.5-2-1.5-4.8,0-6.7,.7-1.1,2-2,3.4-2.2,1.5-.7,3.4-.9,5-.9l4.3,.4c1.3,.2,2.4,.7,3.5,1.3l-2,4.1c-1.9-.9-3.9-1.5-6-1.5s-1.9,.2-2.8,.7c-.7,.2-1.1,.7-1.1,1.3s.4,.9,1.1,1.1l3.4,.7,4.3,.9c.9,.4,1.9,1.1,2.8,1.9,.7,.9,1.1,2.2,1.1,3.4s-.4,2.2-1.1,3.2c-.9,1.1-2,1.9-3.4,2.2-1.7,.6-3.4,.9-5.2,.9-1.7,0-3.4-.3-5-.7Z"
      style="fill:#1a1a1a; fill-rule:evenodd;" />
    <path
      d="M203.9,37.9c1.1-1.1,1.7-2.6,1.5-4.1,0-1.5-.6-2.8-1.5-3.9-.9-1.1-2.4-1.7-3.9-1.5-1.3,0-2.8,.6-3.5,1.5-.9,.9-1.7,2.4-1.5,3.9,0,1.5,.6,3,1.5,4.1,.9,.9,2.2,1.5,3.5,1.5,1.7,0,3-.6,3.9-1.5Zm2.6-12.9c1.5,.7,2.8,2,3.5,3.5,.9,1.5,1.5,3.4,1.3,5.2,0,1.9-.4,3.7-1.3,5.4-.9,1.5-2,2.8-3.5,3.5-1.7,.9-3.4,1.3-5.2,1.3-2.4,.2-4.8-.9-6.3-2.8v2.2h-6V16.2h6.2v9.9c1.5-1.7,3.7-2.6,6.2-2.4,1.9-.2,3.5,.4,5.2,1.3Z"
      style="fill:#1a1a1a; fill-rule:evenodd;" />
    <g>
      <path
        d="M215.4,43.7h6V23.7h-6v20Zm.4-23.5c-.6-.6-.9-1.5-.9-2.2s.4-1.7,.9-2.2c1.7-1.1,3.7-1.1,5.4,0,.6,.6,.9,1.3,.9,2s-.2,1.9-.9,2.4c-1.7,1.1-3.9,1.1-5.4,0Z"
        style="fill:#1a1a1a; fill-rule:evenodd;" />
      <path
        d="M240.3,42.7c-.6,.4-1.3,.7-2,.9l-2.8,.4c-2,.2-4.1-.6-5.6-1.9-1.5-1.5-2-3.4-2-5.4v-8.2h-3.2v-4.3h3.2v-4.7h6v4.7h5.2v4.5h-5.2v8.2c-.2,1.3,.7,2.4,2,2.4h.6c.9,0,1.7-.2,2.4-.7l1.5,4.1Z"
        style="fill:#1a1a1a; fill-rule:evenodd;" />
      <path
        d="M243.6,43.1c-.7-.6-1.1-1.5-1.1-2.4s.4-2,1.1-2.8,1.7-.9,2.8-.9,1.9,.2,2.4,.9c.7,.6,1.3,1.7,1.1,2.8,0,.9-.4,1.9-1.1,2.4-.6,.7-1.5,1.1-2.4,1.1-1.1,0-2-.6-2.8-1.1Z"
        style="fill:#ff8629; fill-rule:evenodd;" />
      <path
        d="M42.2,39.4h-5.6v-5.6h5.6c2.4,0,4.1,.9,4.1,2.8,0,1.9-1.7,2.8-4.1,2.8Zm-5.8-15.1h5.6c2,0,3.4,.9,3.4,2.8s-1.3,2.4-3.4,2.4h-5.6v-5.2Zm15.7,12.9c.2-3-2.2-5.6-5.2-6,2.6-.6,4.3-2.8,4.3-5.4s-2.2-5-6-5.6v-2.4h-3.9v2.3h-4.3v-2.2h-4.1v2.2h-2.2v15.5l-11.9-15.5h-4.8v23.7h5.2v-15.1l11.9,15.1h2v2.2h4.1v-2.2h4.3v2.2h3.9v-2.4c4.3-.7,6.7-3,6.7-6.4Z"
        style="fill:#fff; fill-rule:evenodd;" />
    </g>
  </g>
</svg>