<svg width="20" height="20" viewBox="0 0 20 20" fill="none" xmlns="http://www.w3.org/2000/svg">
<path d="M10 20C15.5417 20 20 15.5417 20 10C20 4.4583 15.5417 0 10 0C4.4583 0 0 4.4583 0 10C0 15.5417 4.4583 20 10 20Z" fill="#2775CA"/>
<path d="M12.75 11.583C12.75 10.1247 11.875 9.62472 10.125 9.41642C8.87502 9.24972 8.62503 8.91642 8.62503 8.33302C8.62503 7.74962 9.04172 7.37472 9.87501 7.37472C10.625 7.37472 11.0417 7.62472 11.25 8.24972C11.2917 8.37472 11.4167 8.45802 11.5417 8.45802H12.2083C12.375 8.45802 12.5 8.33302 12.5 8.16642V8.12472C12.3333 7.20802 11.5833 6.49971 10.625 6.41641V5.41641C10.625 5.24971 10.5 5.12471 10.2917 5.08301H9.66671C9.50002 5.08301 9.37502 5.20801 9.33332 5.41641V6.37471C8.08334 6.54141 7.29175 7.37472 7.29175 8.41642C7.29175 9.79143 8.12504 10.333 9.87501 10.5414C11.0417 10.7497 11.4167 10.9997 11.4167 11.6664C11.4167 12.3331 10.8333 12.7914 10.0417 12.7914C8.95832 12.7914 8.58333 12.333 8.45833 11.708C8.41673 11.5414 8.29173 11.458 8.16673 11.458H7.45834C7.29175 11.458 7.16675 11.583 7.16675 11.7497V11.7914C7.33335 12.833 8.00004 13.583 9.37502 13.7914V14.7914C9.37502 14.958 9.50002 15.083 9.70831 15.1247H10.3333C10.5 15.1247 10.625 14.9997 10.6667 14.7914V13.7914C11.9167 13.583 12.75 12.708 12.75 11.583Z" fill="white"/>
<path d="M7.87593 15.9586C4.62593 14.792 2.95923 11.167 4.16763 7.95859C4.79263 6.20859 6.16763 4.87529 7.87593 4.25029C8.04263 4.16699 8.12593 4.04199 8.12593 3.83359V3.25029C8.12593 3.08359 8.04263 2.95859 7.87593 2.91699C7.83423 2.91699 7.75093 2.91699 7.70923 2.95859C3.75093 4.20859 1.58423 8.41699 2.83423 12.3753C3.58423 14.7086 5.37593 16.5003 7.70923 17.2503C7.87593 17.3336 8.04263 17.2503 8.08423 17.0836C8.12593 17.042 8.12593 17.0003 8.12593 16.917V16.3336C8.12593 16.2086 8.00093 16.042 7.87593 15.9586ZM12.2926 2.95859C12.1259 2.87529 11.9592 2.95859 11.9176 3.12529C11.8759 3.16699 11.8759 3.20859 11.8759 3.29199V3.87529C11.8759 4.04199 12.0009 4.20859 12.1259 4.29199C15.3759 5.45859 17.0426 9.08359 15.8342 12.292C15.2092 14.042 13.8342 15.3753 12.1259 16.0003C11.9592 16.0836 11.8759 16.2086 11.8759 16.417V17.0003C11.8759 17.167 11.9592 17.292 12.1259 17.3336C12.1676 17.3336 12.2509 17.3336 12.2926 17.292C16.2509 16.042 18.4176 11.8336 17.1676 7.87529C16.4176 5.50029 14.5842 3.70859 12.2926 2.95859Z" fill="white"/>
</svg>
