<svg xmlns="http://www.w3.org/2000/svg" width="40" height="40" viewBox="0 0 40 40" fill="none">
  <path
    d="M3.33203 3.33203H14.9987V7.4987H24.9987V3.33203H36.6654V14.9987H32.4987V24.9987H36.6654V36.6654H24.9987V32.4987H14.9987V36.6654H3.33203V24.9987H7.4987V14.9987H3.33203V3.33203ZM11.6654 11.6654V6.66536H6.66536V11.6654H11.6654ZM10.832 14.9987V24.9987H14.9987V29.1654H24.9987V24.9987H29.1654V14.9987H24.9987V10.832H14.9987V14.9987H10.832ZM28.332 28.332V33.332H33.332V28.332H28.332ZM11.6654 28.332H6.66536V33.332H11.6654V28.332ZM28.332 6.66536V11.6654H33.332V6.66536H28.332Z"
    fill="#CD1A27" />
</svg>